<svg xmlns="http://www.w3.org/2000/svg" width="50" height="33"><g id="handshake" transform="translate(0 -87.27)"><g id="Group_26" data-name="Group 26" transform="translate(0 87.27)"><path id="Path_80" data-name="Path 80" d="M50 95.787a3.521 3.521 0 00-.718-2.166l-3.962-5.076a3.405 3.405 0 00-2.682-1.275 3.3 3.3 0 00-1.752.492l-3.863 2.407a3.521 3.521 0 01-1.775.433 3.215 3.215 0 01-1.361-.267L30.1 88.5a4.551 4.551 0 00-1.974-.416 4.914 4.914 0 00-2.777.8l-.441.31-1.5-.749a5.661 5.661 0 00-2.464-.507 5.887 5.887 0 00-2.261.415l-2.577 1.1a4.705 4.705 0 01-1.749.3 4.7 4.7 0 01-1.748-.3l-2.579-1.1a3.749 3.749 0 00-1.472-.287 4.476 4.476 0 00-1.674.329 3.807 3.807 0 00-1.412.973l-4.7 5.266A3.056 3.056 0 001.075 99l4.38 3.742-2.078 2.17a3.1 3.1 0 00.106 4.39l.421.4a3.089 3.089 0 001.374.745 3.068 3.068 0 00.577 3.723l.423.4a3.132 3.132 0 003.366.61 3.068 3.068 0 00.861 1.5l.423.4a3.126 3.126 0 003.877.333 3.079 3.079 0 00.81 1.333l.423.4a3.13 3.13 0 004.405-.1l1.836-1.92 2.495 2.312a3.128 3.128 0 004.4-.159l.4-.427a3.078 3.078 0 00.7-1.264l.966.893a3.133 3.133 0 004.4-.163l.4-.427a3.068 3.068 0 00.794-1.714 3.047 3.047 0 003.058-.879l.4-.427a3.093 3.093 0 00.83-2.113 3.174 3.174 0 00-.085-.7 3.086 3.086 0 001.869-.947l.4-.427a3.107 3.107 0 00-.162-4.39l-.745-.689 6.722-7.443A3.547 3.547 0 0050 95.787zM6.056 108.861a1.413 1.413 0 01-.977-.387l-.422-.4a1.413 1.413 0 01-.049-2l4.255-4.447a1.427 1.427 0 012-.048l.42.4a2.672 2.672 0 01.436 1.023 1.406 1.406 0 01-.252.8L6.879 108.6a1.432 1.432 0 01-.823.261zm3.4 4.435a1.427 1.427 0 01-2 .047l-.423-.4a1.417 1.417 0 01-.048-2s5.672-5.913 5.72-5.97a1.419 1.419 0 011.958-.01l.423.4a1.415 1.415 0 01.048 2zm4.649 2.514a1.425 1.425 0 01-2 .047l-.424-.4a1.4 1.4 0 01-.123-1.9l3.95-4.129a1.415 1.415 0 011.923.019l.424.4a1.414 1.414 0 01.048 2zm7.506-.436l-2.4 2.505a1.426 1.426 0 01-2 .047l-.423-.4a1.414 1.414 0 01-.048-2l2.4-2.505a1.427 1.427 0 012-.047l.424.4a1.415 1.415 0 01.046 2zm20.824-6.8a1.4 1.4 0 01-.377.959l-.4.427a1.427 1.427 0 01-2 .073l-6.693-6.2-1.157 1.241 7.164 6.646a1.413 1.413 0 01.073 2l-.4.427a1.426 1.426 0 01-2 .073l-6.695-6.2-1.15 1.246 5.941 5.5a1.411 1.411 0 01.058 1.975l-.4.427a1.428 1.428 0 01-2 .074l-5.929-5.482-1.158 1.24.022.021 2.97 2.745a1.4 1.4 0 01.025 1.933l-.4.427a1.423 1.423 0 01-2 .072l-2.586-2.4a3.06 3.06 0 00-.612-3.651l-.424-.4a3.113 3.113 0 00-2.148-.855c-.06 0-.12.014-.178.017v-.043a5.929 5.929 0 00-.963-2.249l-.423-.4a3.1 3.1 0 00-1.568-.8 3.063 3.063 0 00-.779-3.276l-.423-.4a3.119 3.119 0 00-2.149-.856c-.09 0-.178.018-.268.026a3.093 3.093 0 00-.953-2.151l-.422-.4a3.129 3.129 0 00-4.405.1l-1 1.05-4.45-3.8a1.367 1.367 0 01-.128-1.95l4.7-5.265a2.142 2.142 0 01.785-.53 2.791 2.791 0 011.032-.2 2.057 2.057 0 01.8.151l2.578 1.1a6.334 6.334 0 002.418.435 6.334 6.334 0 002.418-.435l2.577-1.1a4.215 4.215 0 011.592-.279 4.04 4.04 0 011.7.328l.688.344-2.628 1.85a3.042 3.042 0 00-.693 4.314l.347.467a3.39 3.39 0 002.714 1.331 3.292 3.292 0 001.7-.463l1.571-.945a2.585 2.585 0 011.3-.318 2.715 2.715 0 011.537.433l4.348 3.121a43.437 43.437 0 013.417 2.792l5.032 4.659a1.4 1.4 0 01.451 1.03zm5.421-11.543l-6.7 7.423-3.044-2.817a44.8 44.8 0 00-3.58-2.925l-4.35-3.112a4.389 4.389 0 00-2.531-.752 4.275 4.275 0 00-2.184.561l-1.57.945a1.593 1.593 0 01-.82.22 1.694 1.694 0 01-1.349-.646l-.346-.466a1.349 1.349 0 01.308-1.92l4.646-3.269a3.267 3.267 0 011.8-.49 2.875 2.875 0 011.231.245l3.783 1.835a4.881 4.881 0 002.1.439 5.17 5.17 0 002.675-.691l3.863-2.411a1.6 1.6 0 01.851-.234 1.713 1.713 0 011.34.622l3.962 5.076a1.849 1.849 0 01.361 1.126 1.884 1.884 0 01-.447 1.247z" transform="translate(0 -87.27)" fill="#36a9e1"/></g></g></svg>