<svg xmlns="http://www.w3.org/2000/svg" width="41" height="39"><g id="paint" fill="#36a9e1"><path id="Path_81" data-name="Path 81" d="M38.95 26h-6.62l5.73-3.147a1.964 1.964 0 00.96-1.182 1.863 1.863 0 00-.2-1.481l-4.785-7.881a2.04 2.04 0 00-1.247-.908 2.119 2.119 0 00-1.557.2L25.5 14.746 28.8 9.3a1.867 1.867 0 00.21-1.483 1.965 1.965 0 00-.957-1.188l-8.279-4.554a2.14 2.14 0 00-1.556-.191 2.038 2.038 0 00-1.242.911l-3.31 5.454V1.95A2 2 0 0011.616 0H2.05A2 2 0 000 1.95v35.1A2 2 0 002.05 39h36.9A2 2 0 0041 37.05v-9.1A2 2 0 0038.95 26zm-36.9 0a2.125 2.125 0 00-.683.12V19.5h5.47L2.892 26zm27.55 0h-9.348l-3.131-5.151 7.1-3.9 5.464 9zm-6.467-9.953l-8.09 4.444-5.423-2.976 4.1-6.752 9.464 5.2zM12.3 10.5l-4.2 6.918s-.006 0-.008.008v.01l-.463.763H1.366V10.4H12.3zm-3.363 8.14l4.736 2.6L5.01 26h-.54zm6.435 3.169h.009l.557-.306L18.673 26H7.743zM12.3 27.3h8.2v10.4h-8.2zm9.567 0h8.2v10.4h-8.2zm10.047-14.577a.7.7 0 01.517-.067.69.69 0 01.419.3l4.782 7.877a.62.62 0 01.068.495.653.653 0 01-.322.393L30.869 25.3l-5.464-9zm-13.753-9.28a.677.677 0 01.413-.3.712.712 0 01.518.063l8.28 4.544a.665.665 0 01.323.4.616.616 0 01-.072.495l-3.757 6.189L14.4 9.636zM2.05 1.3h9.567a.669.669 0 01.683.65V9.1H1.367V1.95a.669.669 0 01.683-.65zm-.684 35.75v-9.1a.669.669 0 01.683-.65h8.883v10.4H2.05a.669.669 0 01-.683-.65zm38.267 0a.669.669 0 01-.683.65h-7.517V27.3h7.517a.669.669 0 01.683.65zm0 0"/><path id="Path_82" data-name="Path 82" d="M54.28 392.535a3.081 3.081 0 103.081 3.081 3.081 3.081 0 00-3.081-3.081zm0 4.621a1.54 1.54 0 111.54-1.54 1.54 1.54 0 01-1.54 1.54zm0 0" transform="translate(-46.579 -364.317)"/></g></svg>