<svg xmlns="http://www.w3.org/2000/svg" width="46" height="44"><g id="trolley" transform="translate(0 -.5)" fill="#36a9e1"><path id="Path_83" data-name="Path 83" d="M171.854 394.09a2.762 2.762 0 102.76 2.762 2.764 2.764 0 00-2.76-2.762zm0 4.151a1.389 1.389 0 111.388-1.389 1.39 1.39 0 01-1.388 1.389zm0 0" transform="translate(-153.919 -358.416)"/><path id="Path_84" data-name="Path 84" d="M360.826 394.09a2.762 2.762 0 102.76 2.762 2.764 2.764 0 00-2.76-2.762zm0 4.151a1.389 1.389 0 111.388-1.389 1.39 1.39 0 01-1.388 1.389zm0 0" transform="translate(-325.933 -358.416)"/><path id="Path_85" data-name="Path 85" d="M43.595 35.861H42.3V25.278a2.247 2.247 0 00-2.245-2.243h-6.167v-3.906a.68.68 0 00-.68-.679.68.68 0 00-.68.678v3.907h-5.164a2.241 2.241 0 00-1.567.637 2.237 2.237 0 00-1.565-.637h-6.164V10.987a.886.886 0 01.887-.883H21.5v2.037a1.424 1.424 0 001.425 1.42h4.545a1.424 1.424 0 001.425-1.42V10.1h2.745a.886.886 0 01.887.883v4.985a.68.68 0 001.36 0v-4.981a2.247 2.247 0 00-2.247-2.241H18.955a2.247 2.247 0 00-2.248 2.241v12.047h-5.162a2.239 2.239 0 00-.887.182V2.837A2.416 2.416 0 008.255.5H2.391A2.32 2.32 0 000 2.9a2.32 2.32 0 002.391 2.4h3.226a.236.236 0 01.233.232v32.727a2.406 2.406 0 002.405 2.4h4.069a6.01 6.01 0 0011.209 0H29.3a6.01 6.01 0 0011.208 0h3.084a2.4 2.4 0 100-4.8zM22.864 10.1h4.674v2.037a.066.066 0 01-.065.062h-4.545a.066.066 0 01-.065-.062zm8.411 14.288h4.672v2.037a.064.064 0 01-.062.064h-4.548a.064.064 0 01-.062-.064zm-15.819 0h4.672v2.037a.064.064 0 01-.062.064h-4.548a.065.065 0 01-.062-.064zM11.975 39.3h-3.72a1.045 1.045 0 01-1.045-1.041V5.532a1.593 1.593 0 00-1.593-1.591H2.391A.974.974 0 011.36 2.9a.974.974 0 011.031-1.042h5.864A1.048 1.048 0 019.3 2.864V36.54a.68.68 0 00.68.679h2.08a5.928 5.928 0 00-.085 2.083zm5.954 3.839a4.64 4.64 0 114.648-4.64 4.649 4.649 0 01-4.648 4.642zm5.393-7.281a6.01 6.01 0 00-10.786 0h-1.878v-10.58a.887.887 0 01.887-.886H14.1v2.037a1.424 1.424 0 001.422 1.423h4.547a1.424 1.424 0 001.422-1.423v-2.037h2.744a.886.886 0 01.884.886v10.583zm5.631 3.442h-5.071a5.9 5.9 0 00-.085-2.083h5.241a5.914 5.914 0 00-.085 2.083zm5.953 3.839a4.64 4.64 0 114.648-4.64 4.649 4.649 0 01-4.647 4.642zm5.394-7.278a6.01 6.01 0 00-10.786 0h-3.037V25.278a.887.887 0 01.887-.886h2.55v2.037a1.424 1.424 0 001.422 1.423h4.547a1.424 1.424 0 001.422-1.423v-2.037h2.744a.886.886 0 01.885.886v10.583zm3.3 3.441h-2.74a5.914 5.914 0 00-.085-2.083h2.82a1.042 1.042 0 110 2.083zm0 0"/></g></svg>