<svg xmlns="http://www.w3.org/2000/svg" width="47" height="47"><g id="wall" transform="translate(-1 -1)" fill="#36a9e1"><path id="Path_86" data-name="Path 86" d="M0 0h1.755v1.541H0z" transform="rotate(-61.385 35.431 8.478)"/><path id="Path_87" data-name="Path 87" d="M22.36 31.721a2.275 2.275 0 012.154-1.173l.11-1.537a3.836 3.836 0 00-3.617 1.973l-4.6 8.435 1.353.737z" transform="translate(-3.767 -6.88)"/><path id="Path_88" data-name="Path 88" d="M48 6.306A5.313 5.313 0 0042.694 1h-1.072L26.46 16.161l1.516 1.516-3.117 3.117a6.75 6.75 0 00-10 1.431H1V48h47V22.226H33.153L48 7.378zm-1.516 0a3.8 3.8 0 01-3.79-3.79 3.8 3.8 0 013.79 3.79zm-.978 1.422L35.113 18.122l-4.235-4.235L41.271 3.494a5.318 5.318 0 004.235 4.235zm-15.7 7.23l4.235 4.235-1.2 1.2-4.241-4.232zm.444 4.993l-5.279 5.279a1.518 1.518 0 01-1.2-1.2l5.279-5.28zM11.508 28.29H10.1v-4.548h3.891zm-.827 1.516L8.2 34.355H7.065v-4.549zm-5.133 4.549H2.516v-4.549h3.032zm1.857 1.516a4.344 4.344 0 00.734 4.548H2.516v-4.548zm5.723 6.065v4.548H7.065v-4.549zm22.743-12.13v4.548h-6.065v-4.548zm-3.032 10.613v-4.548H38.9v4.548zm-7.581 0v-4.548h6.065v4.548zm3.032-6.065h-1.854a6.773 6.773 0 001.854-1.583zm-4.607 1.516h.058v4.548h-8.4zm-9.038 6.065h6.065v4.548h-6.065zm7.581 0h6.064v4.548h-6.064zm7.581 0h6.065v4.548h-6.066zm7.581 0h6.065v4.548h-6.066zm3.032-1.516v-4.548h6.065v4.548zm4.548-6.065v-4.548h1.516v4.548zm-1.516 0h-6.065v-4.548h6.065zM32.839 28.29v-4.548H38.9v4.548zm-1.516 0H29.8a6.71 6.71 0 00-1.59-4.15l.4-.4h2.718zm-15.449-4.839a5.258 5.258 0 017.91-1.581l-1.559 1.559v.314a3.035 3.035 0 003.032 3.032h.314l1.558-1.558a5.256 5.256 0 01-1.58 7.91L12.82 40.069a2.866 2.866 0 01-3.889-3.889zm-7.293.291v4.548H2.516v-4.548zM2.516 41.935h3.032v4.548H2.516zm42.452 4.548v-4.548h1.516v4.548zm1.516-18.193h-6.065v-4.548h6.065zM30.12 22.226l1.2-1.2 1.2 1.2z"/></g></svg>